<svg width="16" height="16" viewBox="0 0 16 16" fill="none" xmlns="http://www.w3.org/2000/svg">
<path d="M13.0935 15.9915C12.9712 16.0028 12.8482 16.0028 12.7259 15.9915C9.57621 15.3906 6.6804 13.8532 4.4161 11.5797C2.15181 9.30623 0.624117 6.40216 0.0322606 3.24625C-0.0503648 2.78435 0.0268328 2.30805 0.251097 1.89603C0.475361 1.48402 0.833271 1.16097 1.26568 0.980248L3.56099 0.0313085C3.65674 -0.00853366 3.76403 -0.0104161 3.86111 0.026043C3.95819 0.0625021 4.03779 0.134573 4.08377 0.227641L5.71744 3.58165C5.75482 3.6448 5.77455 3.71685 5.77455 3.79026C5.77455 3.86366 5.75482 3.93572 5.71744 3.99886L4.2553 5.93764C4.10961 6.13813 4.02709 6.37767 4.01836 6.62548C4.00963 6.87329 4.07507 7.11805 4.20629 7.32833C5.31555 9.15025 6.84498 10.6791 8.66622 11.7867C8.87363 11.9158 9.11444 11.9808 9.35852 11.9735C9.60261 11.9662 9.83913 11.887 10.0385 11.7458L12.0888 10.2979C12.1521 10.2612 12.2239 10.242 12.2971 10.242C12.3702 10.242 12.442 10.2612 12.5054 10.2979L15.7727 11.934C15.8656 11.98 15.9376 12.0597 15.974 12.1569C16.0104 12.2542 16.0085 12.3616 15.9687 12.4575L15.0212 14.7562C14.858 15.1301 14.5877 15.447 14.2446 15.6669C13.9014 15.8868 13.5008 15.9998 13.0935 15.9915ZM3.52015 0.931165L1.58425 1.74922C1.33058 1.8538 1.11896 2.04008 0.98286 2.27862C0.846758 2.51715 0.79394 2.79431 0.83276 3.06628C1.39658 6.06423 2.85051 8.82205 5.00445 10.9792C7.15838 13.1363 9.91211 14.5924 12.9056 15.1571C13.1837 15.2084 13.471 15.1625 13.7194 15.027C13.9677 14.8914 14.162 14.6746 14.2697 14.4127L15.0866 12.4657L12.3338 11.1077L10.5123 12.4084C10.1827 12.6425 9.79173 12.7743 9.38793 12.7874C8.98413 12.8005 8.58542 12.6943 8.24147 12.4821C6.30704 11.305 4.68245 9.68081 3.50382 7.74554C3.29015 7.39602 3.18536 6.99065 3.20282 6.5812C3.22028 6.17176 3.3592 5.77681 3.60184 5.44681L4.8761 3.72072L3.52015 0.931165Z" fill="#4D4D4D"/>
</svg>
