<svg width="24" height="21" viewBox="0 0 24 21" fill="none" xmlns="http://www.w3.org/2000/svg">
<path fill-rule="evenodd" clip-rule="evenodd" d="M23.3122 3.31067H4.66521L4.33724 1.97641C4.05398 0.812477 3.00907 -0.00490976 1.81143 2.21979e-05H0.532251C0.242089 2.21979e-05 0.00683594 0.235276 0.00683594 0.525602C0.00683594 0.815765 0.242089 1.05102 0.532251 1.05102H1.81143C2.52409 1.04526 3.14733 1.53057 3.31666 2.22301L5.86811 12.6427C6.15284 13.8044 7.19858 14.6181 8.39441 14.6089H19.3084C20.521 14.6186 21.5763 13.782 21.8436 12.5995L23.8246 3.94081C23.8605 3.78693 23.8231 3.62516 23.7233 3.50236C23.6229 3.37889 23.4715 3.3082 23.3122 3.31067ZM20.8193 12.3685C20.6591 13.0716 20.0297 13.5673 19.3084 13.5579H8.39441C7.68273 13.5656 7.05917 13.0825 6.88918 12.3914L4.92233 4.36166H22.6528L20.8193 12.3685ZM17.0363 16.3056C15.74 16.3056 14.689 17.3563 14.689 18.6526C14.689 19.9492 15.7396 21 17.0359 21C18.3325 21 19.3832 19.9492 19.3832 18.6529C19.3821 17.357 18.3319 16.307 17.0363 16.3056ZM17.0363 19.949C16.3201 19.949 15.74 19.3687 15.74 18.6529C15.74 17.9369 16.3201 17.3566 17.0359 17.3566C17.752 17.3563 18.3322 17.9369 18.3322 18.6526C18.3314 19.3682 17.7517 19.9478 17.0363 19.949ZM7.58118 18.6526C7.58118 17.3563 8.63218 16.3056 9.92846 16.3056C11.2242 16.307 12.2744 17.357 12.2756 18.6529C12.2756 19.9492 11.2247 21 9.92829 21C8.63201 21 7.58118 19.9492 7.58118 18.6526ZM8.63218 18.6529C8.63218 19.3687 9.2125 19.949 9.92846 19.949C10.6439 19.9478 11.2238 19.3682 11.2246 18.6526C11.2246 17.9369 10.6442 17.3563 9.92829 17.3566C9.2125 17.3566 8.63218 17.9369 8.63218 18.6529Z" fill="#121F2D"/>
</svg>
