<svg width="20" height="20" viewBox="0 0 20 20" fill="none" xmlns="http://www.w3.org/2000/svg">
<path d="M19.8002 0.116468C19.6449 -0.0388226 19.3931 -0.0388226 19.2378 0.116468L9.95832 9.39594L0.678872 0.116516C0.523562 -0.0388138 0.271781 -0.0388138 0.116479 0.116516C-0.0388269 0.271807 -0.0388271 0.523605 0.116483 0.678896L9.39593 9.95832L0.116511 19.2378C-0.0387871 19.3931 -0.0387989 19.6448 0.116507 19.8001C0.271809 19.9555 0.523602 19.9554 0.6789 19.8001L9.95832 10.5207L19.2378 19.8001C19.3931 19.9555 19.6449 19.9554 19.8002 19.8001C19.9555 19.6448 19.9555 19.393 19.8002 19.2378L10.5207 9.95832L19.8002 0.678847C19.9555 0.523557 19.9555 0.271758 19.8002 0.116468Z" fill="#121F2D"/>
</svg>
