<svg width="15" height="15" viewBox="0 0 15 15" fill="none" xmlns="http://www.w3.org/2000/svg">
<path d="M13.4024 0.896834L13.4024 0.896829C13.6013 0.701056 13.9221 0.701058 14.1209 0.896828C14.3219 1.09474 14.3219 1.41725 14.1209 1.61515L8.23485 7.41066L14.1209 13.2061C14.3219 13.404 14.3219 13.7266 14.1209 13.9245L13.9455 13.7463L14.1209 13.9245C13.9221 14.1202 13.6013 14.1203 13.4024 13.9245C13.4024 13.9245 13.4024 13.9244 13.4024 13.9244L7.51083 8.12355L1.61927 13.9245L1.44416 13.7466L1.61927 13.9245C1.42046 14.1202 1.09966 14.1203 0.900781 13.9245C0.699742 13.7265 0.699802 13.4041 0.900757 13.2062L0.900775 13.2061L6.78681 7.41066L0.900768 1.61519C0.900764 1.61519 0.90076 1.61518 0.900757 1.61518C0.699753 1.41728 0.699749 1.09478 0.900738 0.896881L13.4024 0.896834ZM13.4024 0.896834L7.51083 6.69779L1.61926 0.896877M13.4024 0.896834L1.61926 0.896877M1.61926 0.896877C1.61926 0.896873 1.61926 0.896869 1.61925 0.896865M1.61926 0.896877L1.61925 0.896865M1.61925 0.896865C1.42041 0.701068 1.09961 0.701057 0.900763 0.896857L1.61925 0.896865ZM13.5778 1.07491L13.5778 1.07498L13.5778 1.07491Z" fill="white" stroke="white" stroke-width="0.5"/>
</svg>
