<svg width="112" height="123" viewBox="0 0 112 123" fill="none" xmlns="http://www.w3.org/2000/svg">
<circle cx="56" cy="56" r="56" fill="#ABB985"/>
<path fill-rule="evenodd" clip-rule="evenodd" d="M55.5002 117.013C55.9095 117.013 56.2413 117.348 56.2413 117.761V122.177C56.2413 122.59 55.9095 122.925 55.5002 122.925C55.0908 122.925 54.759 122.59 54.759 122.177V117.761C54.759 117.348 55.0908 117.013 55.5002 117.013Z" fill="black"/>
<path fill-rule="evenodd" clip-rule="evenodd" d="M61.4982 36.1109C64.0153 36.1487 66.0173 36.9107 67.5834 38.1137C69.2007 39.356 70.3134 41.0374 71.0668 42.7799C72.5627 46.2396 72.7052 50.0877 72.4638 51.7129C72.4226 51.9903 72.2312 52.2211 71.9681 52.3109C68.8671 53.3688 65.9758 52.0639 63.7972 49.9528C61.9751 48.187 60.5639 45.7854 59.8089 43.4529C56.781 46.4773 51.783 48.8415 46.8587 49.4815C41.3807 50.1934 35.7006 48.7899 32.977 43.4107C32.8228 43.1061 32.8928 42.7346 33.147 42.5084C33.4012 42.2823 33.775 42.259 34.0548 42.4519C34.8786 43.0199 35.6865 43.2072 36.5103 43.1407C37.3548 43.0724 38.2571 42.7332 39.2373 42.174C40.6804 41.3507 42.1511 40.1423 43.7327 38.8426C44.3385 38.3449 44.9604 37.8338 45.6034 37.3259C47.8636 35.5403 50.3547 33.8242 53.0581 33.2948C55.7692 32.7639 58.5902 33.4423 61.4982 36.1109ZM35.5307 44.6065C38.1121 47.6738 42.2851 48.5667 46.6695 47.9969C51.852 47.3234 57.0359 44.6249 59.5962 41.4728C59.7765 41.2508 60.0666 41.1526 60.3429 41.2198C60.6192 41.287 60.8331 41.5079 60.8935 41.7884C61.4192 44.2305 62.8678 46.9776 64.8235 48.8728C66.6547 50.6474 68.8203 51.5848 71.0478 51.0248C71.1659 49.4242 70.9487 46.2476 69.7084 43.3788C69.0258 41.8003 68.0495 40.3524 66.686 39.305C65.3325 38.2653 63.5579 37.5891 61.2123 37.6066C61.0217 37.608 60.8378 37.5352 60.6989 37.4032C58.0138 34.8513 55.59 34.3236 53.3403 34.7642C51.0156 35.2194 48.7681 36.7262 46.5167 38.5048C45.9358 38.9637 45.3516 39.4438 44.7671 39.9242C43.1484 41.2545 41.5272 42.5868 39.9664 43.4772C38.8864 44.0933 37.7697 44.5405 36.6286 44.6327C36.2606 44.6624 35.8944 44.6549 35.5307 44.6065Z" fill="black"/>
<path fill-rule="evenodd" clip-rule="evenodd" d="M20 122.177C20 121.763 20.3318 121.428 20.7411 121.428H90.2589C90.6682 121.428 91 121.763 91 122.177C91 122.59 90.6682 122.925 90.2589 122.925H20.7411C20.3318 122.925 20 122.59 20 122.177Z" fill="black"/>
<path fill-rule="evenodd" clip-rule="evenodd" d="M41.703 76.1879C41.9326 76.1107 42.1852 76.1515 42.3795 76.2973L55.9421 86.4756C56.2016 86.6703 56.3061 87.0125 56.2004 87.321C56.0959 87.626 55.8098 87.8286 55.4911 87.8246C55.4906 87.8247 55.4899 87.8247 55.4891 87.8247C55.4827 87.8249 55.4672 87.8255 55.4435 87.8276C55.3961 87.8318 55.3162 87.8418 55.2108 87.8659C55.0008 87.9139 54.6878 88.018 54.3254 88.2453C53.6121 88.6926 52.6344 89.6637 51.9028 91.8087C51.7744 92.1905 51.5687 92.5427 51.2428 92.7856C50.9042 93.038 50.5151 93.1136 50.1407 93.0781C49.4562 93.0132 48.7476 92.5716 48.1021 92.0509C46.7664 90.9733 45.185 89.1192 43.6955 87.1794C42.1946 85.2246 40.7462 83.1281 39.675 81.5238C39.1389 80.7208 38.6961 80.0394 38.3871 79.5583C38.2326 79.3178 38.1115 79.1272 38.0288 78.9965C37.9875 78.9312 37.9558 78.8808 37.9343 78.8466L37.9098 78.8076L37.9014 78.7941C37.9013 78.7939 37.9012 78.7938 38.5282 78.3948L37.9014 78.7941C37.7916 78.6182 37.7591 78.4039 37.8118 78.2029C37.8646 78.002 37.9978 77.8322 38.1794 77.7344C39.3234 77.1183 40.5474 76.5769 41.703 76.1879ZM39.5932 78.6853C39.6054 78.7045 39.618 78.724 39.6307 78.7438C39.9357 79.2187 40.3736 79.8926 40.904 80.687C41.9659 82.2775 43.394 84.344 44.8669 86.2622C46.3512 88.1954 47.8408 89.9243 49.0273 90.8814C49.6429 91.3781 50.058 91.5668 50.2794 91.5879C50.3229 91.592 50.345 91.5879 50.3522 91.5861C50.3576 91.5847 50.3592 91.5838 50.3625 91.5814C50.37 91.5758 50.4333 91.5241 50.4995 91.3266L50.5007 91.3231C51.3254 88.904 52.4966 87.6302 53.5434 86.9738C53.6548 86.9039 53.7641 86.8415 53.8704 86.7858L41.8095 77.7344C41.0842 77.9964 40.3307 78.3206 39.5932 78.6853Z" fill="black"/>
<path fill-rule="evenodd" clip-rule="evenodd" d="M53.2143 91.5844C53.2777 91.2278 53.585 90.9683 53.9437 90.9683H57.1306C57.4913 90.9683 57.7996 91.2305 57.8609 91.5894L61.4925 112.844C61.5357 113.097 61.4473 113.355 61.2583 113.527L55.9963 118.317C55.7158 118.572 55.29 118.574 55.0077 118.321L49.6716 113.531C49.4787 113.358 49.3889 113.096 49.4345 112.839L53.2143 91.5844ZM54.5636 92.4651L50.9669 112.691L55.4967 116.757L59.9623 112.692L56.5064 92.4651H54.5636Z" fill="black"/>
<path fill-rule="evenodd" clip-rule="evenodd" d="M55.5 86.3278C55.4817 86.3274 55.4588 86.3272 55.4318 86.3276C55.3753 86.3285 55.3001 86.332 55.2091 86.3413C55.027 86.3598 54.7802 86.4017 54.4907 86.4934C53.9072 86.6783 53.1651 87.0611 52.4413 87.835C52.2601 88.0288 52.1946 88.3053 52.2694 88.5609L53.2329 91.8539C53.3259 92.172 53.6152 92.3902 53.9436 92.3902H57.1305C57.4647 92.3902 57.7575 92.1644 57.8455 91.8388L58.7348 88.5458C58.8028 88.294 58.7361 88.0247 58.5586 87.835C57.8348 87.0611 57.0927 86.6783 56.5093 86.4934C56.2198 86.4017 55.9729 86.3598 55.7909 86.3413C55.6998 86.332 55.6247 86.3285 55.5682 86.3276C55.5412 86.3272 55.5183 86.3274 55.5 86.3278ZM55.4673 87.8242C55.4653 87.8242 55.4612 87.8242 55.455 87.8243C55.4377 87.8246 55.4045 87.8258 55.3578 87.8305C55.2642 87.8401 55.1173 87.8637 54.9344 87.9216C54.6408 88.0146 54.2442 88.1992 53.8183 88.5723L54.4974 90.8934H56.5644L57.1894 88.5791C56.7606 88.2014 56.3609 88.0152 56.0656 87.9216C55.8826 87.8637 55.7357 87.8401 55.6422 87.8305C55.5954 87.8258 55.5623 87.8246 55.545 87.8243C55.5388 87.8242 55.5347 87.8242 55.5327 87.8242C55.5109 87.8252 55.4891 87.8252 55.4673 87.8242Z" fill="black"/>
<path fill-rule="evenodd" clip-rule="evenodd" d="M68.6186 76.2987C68.8004 76.1613 69.0344 76.1156 69.2537 76.1747C70.458 76.499 71.8599 77.2118 72.8233 77.7357C73.0042 77.834 73.1365 78.0037 73.1887 78.2042C73.241 78.4048 73.2085 78.6182 73.099 78.7937L72.472 78.3946C73.099 78.7937 73.0991 78.7935 73.099 78.7937L73.0903 78.8075L73.0659 78.8465C73.0444 78.8807 73.0127 78.9311 72.9713 78.9964C72.8887 79.1271 72.7676 79.3176 72.613 79.5582C72.304 80.0393 71.8613 80.7207 71.3251 81.5237C70.254 83.128 68.8056 85.2245 67.3047 87.1793C65.8152 89.1191 64.2338 90.9732 62.8981 92.0508C62.2526 92.5715 61.5439 93.013 60.8594 93.078C60.4851 93.1135 60.0959 93.0379 59.7573 92.7855C59.4315 92.5426 59.2258 92.1905 59.0974 91.8087C58.3654 89.6623 57.3879 88.6942 56.6796 88.2575C56.3194 88.0355 56.0128 87.9405 55.8151 87.9027C55.7468 87.8897 55.6946 87.884 55.6602 87.8818C55.4971 87.9182 55.3233 87.8986 55.1684 87.8203C54.9175 87.6934 54.759 87.4344 54.759 87.151C54.759 86.8399 54.9385 86.6501 55.0185 86.5805C55.046 86.5565 55.0732 86.5364 55.0987 86.5196L68.6186 76.2987ZM57.1734 86.821C57.2645 86.8689 57.3575 86.9218 57.452 86.98C58.5036 87.6284 59.6752 88.9052 60.4995 91.323L60.5007 91.3265C60.5669 91.524 60.6302 91.5757 60.6377 91.5812C60.641 91.5837 60.6426 91.5846 60.648 91.5859C60.6551 91.5877 60.6773 91.5919 60.7208 91.5877C60.9421 91.5667 61.3573 91.378 61.9729 90.8813C63.1593 89.9242 64.649 88.1952 66.1333 86.2621C67.6062 84.3438 69.0342 82.2773 70.0961 80.6869C70.6265 79.8925 71.0644 79.2186 71.3695 78.7437C71.3837 78.7216 71.3976 78.6999 71.4112 78.6786C70.7012 78.3152 69.9144 77.9509 69.2096 77.7218L57.1734 86.821ZM55.6172 87.8806C55.6172 87.8805 55.6179 87.8805 55.6195 87.8805L55.6172 87.8806Z" fill="black"/>
<path fill-rule="evenodd" clip-rule="evenodd" d="M52.0697 72.574C52.2437 72.4319 52.4721 72.3769 52.6909 72.4242C53.6949 72.6415 54.6782 72.7818 55.7225 72.7818C56.6478 72.7818 57.4727 72.7098 58.2849 72.5048C58.5063 72.4489 58.7408 72.4991 58.9207 72.6409C59.1006 72.7828 59.2058 73.0004 59.2058 73.2308V74.3162C65.55 74.6871 71.2993 76.145 75.5177 79.5303C79.9297 83.0709 82.5513 88.6242 82.5513 96.8805C82.5513 99.8385 82.2147 105.053 81.5914 110.108C81.2795 112.637 80.8943 115.138 80.4404 117.306C79.9899 119.456 79.4605 121.336 78.8415 122.586C78.716 122.84 78.4593 123 78.1786 123H32.8216C32.5392 123 32.2813 122.838 32.1566 122.582C31.5395 121.315 31.0104 119.429 30.5598 117.274C30.106 115.103 29.7208 112.604 29.4089 110.08C28.7856 105.035 28.449 99.8386 28.449 96.8805C28.449 88.6242 31.0705 83.0709 35.4825 79.5303C39.701 76.145 45.4502 74.6871 51.7945 74.3162V73.156C51.7945 72.93 51.8956 72.7161 52.0697 72.574ZM53.2767 74.0619V75.027C53.2767 75.4272 52.965 75.7566 52.5691 75.7747C46.0748 76.0711 40.4233 77.4772 36.4047 80.7021C32.4235 83.8971 29.9312 88.9713 29.9312 96.8805C29.9312 99.76 30.2616 104.892 30.8797 109.894C31.1885 112.393 31.5676 114.848 32.0101 116.965C32.4026 118.842 32.8365 120.41 33.2976 121.503H77.7054C78.1647 120.427 78.598 118.869 78.9902 116.996C79.4326 114.883 79.8117 112.426 80.1205 109.923C80.7386 104.911 81.069 99.7601 81.069 96.8805C81.069 88.9713 78.5768 83.8971 74.5955 80.7021C70.577 77.4772 64.9254 76.0711 58.4312 75.7747C58.0353 75.7566 57.7235 75.4272 57.7235 75.027V74.1422C57.0659 74.2425 56.4053 74.2786 55.7225 74.2786C54.87 74.2786 54.0631 74.1955 53.2767 74.0619Z" fill="black"/>
<path fill-rule="evenodd" clip-rule="evenodd" d="M60.2646 41.1441C60.542 41.2099 60.7575 41.4305 60.8188 41.7115C61.3451 44.1205 62.741 46.7969 64.6281 48.6848C66.5158 50.5734 68.778 51.5712 71.097 50.9532C71.3002 50.8991 71.5166 50.9346 71.6923 51.0509C71.8681 51.1672 71.9867 51.3533 72.0186 51.563C72.1731 52.5772 72.2496 53.6633 72.2496 54.7453C72.2496 65.4398 64.9139 74.3536 55.7225 74.3536C46.4549 74.3536 39.1953 65.4374 39.1953 54.7453C39.1953 52.5066 39.5011 50.3364 40.1174 48.3134C40.2309 47.9411 40.6081 47.719 40.9849 47.8026C44.1842 48.5126 47.9294 48.0394 51.3496 46.8C54.7735 45.5594 57.7745 43.5863 59.5182 41.4029C59.6971 41.1789 59.9872 41.0783 60.2646 41.1441ZM41.3503 49.3989C40.903 51.0845 40.6776 52.883 40.6776 54.7453C40.6776 64.859 47.4994 72.8568 55.7225 72.8568C63.8734 72.8568 70.7673 64.8565 70.7673 54.7453C70.7673 54.0079 70.7293 53.2726 70.654 52.5678C67.9559 52.9497 65.489 51.6531 63.5849 49.7481C61.8369 47.9994 60.4818 45.6675 59.7401 43.3871C57.7577 45.3927 54.9271 47.094 51.8502 48.2089C48.4779 49.4309 44.7245 49.9797 41.3503 49.3989Z" fill="black"/>
<path fill-rule="evenodd" clip-rule="evenodd" d="M28.3008 57.2149C28.3008 54.1073 30.856 51.527 33.9333 51.527C34.3427 51.527 34.6745 51.8621 34.6745 52.2754V62.1544C34.6745 62.5677 34.3427 62.9028 33.9333 62.9028C30.856 62.9028 28.3008 60.3225 28.3008 57.2149ZM33.1922 53.0932C31.2756 53.4552 29.783 55.1888 29.783 57.2149C29.783 59.241 31.2756 60.9746 33.1922 61.3366V53.0932Z" fill="black"/>
<path fill-rule="evenodd" clip-rule="evenodd" d="M35.7861 50.8535C35.1578 50.8535 34.6744 51.3417 34.6744 51.9761V62.379C34.6744 63.0134 35.1578 63.5016 35.7861 63.5016H37.4907C38.0121 63.5016 38.5422 63.0418 38.6024 62.3496V51.9761C38.6024 51.3417 38.1189 50.8535 37.4907 50.8535H35.7861ZM33.1921 51.9761C33.1921 50.515 34.3392 49.3567 35.7861 49.3567H37.4907C38.9376 49.3567 40.0846 50.515 40.0846 51.9761V62.379C40.0846 62.3968 40.084 62.4146 40.0827 62.4323C39.9844 63.8223 38.8902 64.9984 37.4907 64.9984H35.7861C34.3392 64.9984 33.1921 63.8401 33.1921 62.379V51.9761Z" fill="black"/>
<path fill-rule="evenodd" clip-rule="evenodd" d="M76.9929 52.2754C76.9929 51.8621 77.3247 51.527 77.734 51.527C80.8114 51.527 83.3666 54.1073 83.3666 57.2149C83.3666 60.3225 80.8114 62.9028 77.734 62.9028C77.3247 62.9028 76.9929 62.5677 76.9929 62.1544V52.2754ZM78.4752 53.0932V61.3366C80.3918 60.9746 81.8844 59.241 81.8844 57.2149C81.8844 55.1888 80.3918 53.4552 78.4752 53.0932Z" fill="black"/>
<path fill-rule="evenodd" clip-rule="evenodd" d="M74.2507 50.8535C73.6224 50.8535 73.139 51.3417 73.139 51.9761V62.379C73.139 63.0134 73.6224 63.5016 74.2507 63.5016H75.9553C76.5835 63.5016 77.067 63.0134 77.067 62.379V51.9761C77.067 51.3417 76.5835 50.8535 75.9553 50.8535H74.2507ZM71.6567 51.9761C71.6567 50.515 72.8038 49.3567 74.2507 49.3567H75.9553C77.4022 49.3567 78.5492 50.515 78.5492 51.9761V62.379C78.5492 63.8401 77.4022 64.9984 75.9553 64.9984H74.2507C72.8038 64.9984 71.6567 63.8401 71.6567 62.379V51.9761Z" fill="black"/>
<path fill-rule="evenodd" clip-rule="evenodd" d="M55.5 28.516C42.8088 28.516 32.4715 39.0936 32.4715 52.242C32.4715 52.6606 32.1421 53 31.7357 53C31.3294 53 31 52.6606 31 52.242C31 38.2533 41.9991 27 55.5 27C69.0024 27 80 38.3306 80 52.242C80 52.6606 79.6706 53 79.2643 53C78.8579 53 78.5285 52.6606 78.5285 52.242C78.5285 39.1679 68.1898 28.516 55.5 28.516Z" fill="black"/>
<path fill-rule="evenodd" clip-rule="evenodd" d="M79.1327 61.2029C79.5399 61.2516 79.8326 61.6235 79.7867 62.0336C78.9956 69.0918 72.6855 74.0516 65.6882 73.214C65.2811 73.1653 64.9883 72.7934 65.0343 72.3833C65.0802 71.9733 65.4475 71.6804 65.8547 71.7291C72.0486 72.4706 77.6143 68.0843 78.3123 61.8571C78.3583 61.447 78.7256 61.1541 79.1327 61.2029Z" fill="black"/>
</svg>
