<svg width="112" height="121" viewBox="0 0 112 121" fill="none" xmlns="http://www.w3.org/2000/svg">
<circle cx="56" cy="56" r="56" fill="#ABB985"/>
<path d="M84.5896 60H61.8671H50.3243H27.5947C26.7156 60 26 60.7156 26 61.5959V118.596C26 119.472 26.7156 120.187 27.5947 120.187H84.5908C85.4699 120.187 86.1855 119.472 86.1855 118.596V61.5959C86.1843 60.7156 85.4699 60 84.5896 60ZM60.9652 61.8039V78.8644L56.7187 74.7899C56.5431 74.6227 56.3194 74.5386 56.0933 74.5386C55.8672 74.5386 55.6436 74.6227 55.468 74.7899L51.2263 78.8632V61.8039H60.9652ZM84.3803 118.383H56.9953V107.284C56.9953 106.786 56.5912 106.382 56.0933 106.382C55.5954 106.382 55.1914 106.786 55.1914 107.284V118.383H27.8027V61.8039H49.4224V80.9798C49.4224 81.3418 49.6388 81.6677 49.9708 81.8096C50.3015 81.9515 50.6875 81.8818 50.9485 81.6305L56.0921 76.6901L61.2406 81.6305C61.4126 81.7952 61.6374 81.8818 61.8659 81.8818C61.9862 81.8818 62.1053 81.8577 62.2195 81.8096C62.5514 81.6677 62.7679 81.3406 62.7679 80.9798V61.8039H84.3803V118.383Z" fill="black"/>
</svg>
