<svg width="30" height="30" viewBox="0 0 30 30" fill="none" xmlns="http://www.w3.org/2000/svg">
<path fill-rule="evenodd" clip-rule="evenodd" d="M15 30C23.2843 30 30 23.2843 30 15C30 6.71573 23.2843 0 15 0C6.71573 0 0 6.71573 0 15C0 23.2843 6.71573 30 15 30ZM15 28.2C22.2902 28.2 28.2 22.2902 28.2 15C28.2 7.70984 22.2902 1.8 15 1.8C7.70984 1.8 1.8 7.70984 1.8 15C1.8 22.2902 7.70984 28.2 15 28.2ZM16.0887 21.6V14.9992H18.0412L18.3 12.7246H16.0887L16.092 11.5861C16.092 10.9928 16.1524 10.6749 17.0655 10.6749H18.2862V8.4H16.3334C13.9877 8.4 13.1621 9.50346 13.1621 11.3591V12.7248H11.7V14.9995H13.1621V21.6H16.0887Z" fill="#4D4D4D"/>
</svg>
