<svg width="11" height="17" viewBox="0 0 11 17" fill="none" xmlns="http://www.w3.org/2000/svg">
<path d="M5.16 0C2.34625 0 0 2.19635 0 5.30743C0 6.48934 0.444438 7.88114 0.921429 8.79635L4.67049 15.9993C4.71736 16.0911 4.78774 16.1679 4.87402 16.2216C4.9603 16.2752 5.05919 16.3036 5.16 16.3036C5.26081 16.3036 5.3597 16.2752 5.44598 16.2216C5.53226 16.1679 5.60264 16.0911 5.64951 15.9993L9.39857 8.79635C9.87557 7.88112 10.32 6.48932 10.32 5.30743C10.32 2.19635 7.97375 0 5.16 0ZM5.16 1.13731C7.43516 1.13731 9.21429 2.76545 9.21429 5.30743C9.21429 6.16293 8.80198 7.5346 8.42531 8.25733L5.16 14.5184L1.89469 8.25733C1.51803 7.53461 1.10571 6.16293 1.10571 5.30743C1.10571 2.76545 2.88484 1.13731 5.16 1.13731ZM5.16 2.65371C3.74165 2.65371 2.58 3.84857 2.58 5.30743C2.58 6.76629 3.74165 7.96115 5.16 7.96115C6.57835 7.96115 7.74 6.76629 7.74 5.30743C7.74 3.84857 6.57835 2.65371 5.16 2.65371ZM5.16 3.79102C5.98077 3.79102 6.63429 4.46324 6.63429 5.30743C6.63429 6.15165 5.98077 6.82384 5.16 6.82384C4.33923 6.82384 3.68571 6.15165 3.68571 5.30743C3.68571 4.46324 4.33923 3.79102 5.16 3.79102Z" fill="#4D4D4D"/>
</svg>
