<svg width="251" height="41" viewBox="0 0 251 41" fill="none" xmlns="http://www.w3.org/2000/svg">
<path fill-rule="evenodd" clip-rule="evenodd" d="M0.349731 0.323853V22.9865H15.7261V16.8352H6.64006V14.5689H14.6777V8.74141H6.64006V6.47514H14.6777V0.323853H0.349731ZM30.0541 0.647605V23.3103H44.382V16.8352H36.3444V0.647605H30.0541ZM197.796 22.9865V0.323853H212.124V6.47514H204.086V8.74141H212.124V14.5689H204.086V16.8352H213.172V22.9865H197.796ZM227.85 22.6628V0.647605H239.732C247 0.647605 250.565 7.77015 250.565 10.6839C250.565 20.7202 242.993 22.7709 239.732 22.6628H227.85ZM234.14 16.8333V6.47514H239.624C242.979 6.47514 244.624 9.82663 244.624 11.1974C244.624 15.9196 241.129 16.8844 239.624 16.8333H234.14ZM58.71 22.9865V0.323853H73.0379V6.47514H65.0003V8.74141H73.0379V14.5689H65.0003V16.8352H74.0863V22.9865H58.71ZM88.7638 0.323853L96.4519 22.6628H104.14L111.828 0.323853H104.14L100.296 13.5977L95.4036 0.323853H88.7638ZM134.194 0.323853L126.506 22.6628H133.146L138.038 9.38891L141.882 22.6628H149.57L141.882 0.323853H134.194ZM164.248 0.323853V6.47514H170.538V22.6628H176.828V6.47514H183.119V0.323853H164.248Z" fill="white"/>
<path d="M0.349462 22.9864H0V23.3101H0.349462V22.9864ZM0.349462 0.323752V0H0V0.323752H0.349462ZM15.7258 22.9864V23.3101H16.0753V22.9864H15.7258ZM15.7258 16.8351H16.0753V16.5113H15.7258V16.8351ZM6.63979 16.8351H6.29032V17.1588H6.63979V16.8351ZM6.63979 14.5688V14.2451H6.29032V14.5688H6.63979ZM14.6774 14.5688V14.8926H15.0269V14.5688H14.6774ZM14.6774 8.7413H15.0269V8.41755H14.6774V8.7413ZM6.63979 8.7413H6.29032V9.06505H6.63979V8.7413ZM6.63979 6.47504V6.15128H6.29032V6.47504H6.63979ZM14.6774 6.47504V6.79879H15.0269V6.47504H14.6774ZM14.6774 0.323752H15.0269V0H14.6774V0.323752ZM30.0538 23.3101H29.7043V23.6339H30.0538V23.3101ZM30.0538 0.647504V0.323752H29.7043V0.647504H30.0538ZM44.3817 23.3101V23.6339H44.7312V23.3101H44.3817ZM44.3817 16.8351H44.7312V16.5113H44.3817V16.8351ZM36.3441 16.8351H35.9946V17.1588H36.3441V16.8351ZM36.3441 0.647504H36.6936V0.323752H36.3441V0.647504ZM197.796 0.323752V0H197.446V0.323752H197.796ZM197.796 22.9864H197.446V23.3101H197.796V22.9864ZM212.124 0.323752H212.473V0H212.124V0.323752ZM212.124 6.47504V6.79879H212.473V6.47504H212.124ZM204.086 6.47504V6.15128H203.737V6.47504H204.086ZM204.086 8.7413H203.737V9.06505H204.086V8.7413ZM212.124 8.7413H212.473V8.41755H212.124V8.7413ZM212.124 14.5688V14.8926H212.473V14.5688H212.124ZM204.086 14.5688V14.2451H203.737V14.5688H204.086ZM204.086 16.8351H203.737V17.1588H204.086V16.8351ZM213.172 16.8351H213.522V16.5113H213.172V16.8351ZM213.172 22.9864V23.3101H213.522V22.9864H213.172ZM227.85 0.647504V0.323752H227.5V0.647504H227.85ZM227.85 22.6626H227.5V22.9864H227.85V22.6626ZM239.731 22.6626L239.744 22.3389H239.738H239.731V22.6626ZM234.14 6.47504V6.15128H233.79V6.47504H234.14ZM234.14 16.8332H233.79V17.1569H234.14V16.8332ZM239.624 16.8332L239.636 16.5094H239.63H239.624V16.8332ZM58.7097 0.323752V0H58.3602V0.323752H58.7097ZM58.7097 22.9864H58.3602V23.3101H58.7097V22.9864ZM73.0377 0.323752H73.3871V0H73.0377V0.323752ZM73.0377 6.47504V6.79879H73.3871V6.47504H73.0377ZM65 6.47504V6.15128H64.6506V6.47504H65ZM65 8.7413H64.6506V9.06505H65V8.7413ZM73.0377 8.7413H73.3871V8.41755H73.0377V8.7413ZM73.0377 14.5688V14.8926H73.3871V14.5688H73.0377ZM65 14.5688V14.2451H64.6506V14.5688H65ZM65 16.8351H64.6506V17.1588H65V16.8351ZM74.086 16.8351H74.4355V16.5113H74.086V16.8351ZM74.086 22.9864V23.3101H74.4355V22.9864H74.086ZM96.4516 22.6626L96.119 22.761L96.1965 22.9864H96.4516V22.6626ZM88.7635 0.323752V0H88.2854L88.4308 0.422168L88.7635 0.323752ZM104.14 22.6626V22.9864H104.395L104.473 22.761L104.14 22.6626ZM111.828 0.323752L112.161 0.422168L112.306 0H111.828V0.323752ZM104.14 0.323752V0H103.871L103.802 0.239573L104.14 0.323752ZM100.296 13.5976L99.9651 13.7025L100.336 14.708L100.633 13.6818L100.296 13.5976ZM95.4033 0.323752L95.7339 0.218855L95.6535 0H95.4033V0.323752ZM126.505 22.6626L126.173 22.5642L126.027 22.9864H126.505V22.6626ZM134.194 0.323752V0H133.938L133.861 0.225336L134.194 0.323752ZM133.145 22.6626V22.9864H133.395L133.476 22.7675L133.145 22.6626ZM138.038 9.3888L138.375 9.30462L138.078 8.27834L137.707 9.2839L138.038 9.3888ZM141.882 22.6626L141.544 22.7468L141.613 22.9864H141.882V22.6626ZM149.57 22.6626V22.9864H150.048L149.903 22.5642L149.57 22.6626ZM141.882 0.323752L142.214 0.225336L142.137 0H141.882V0.323752ZM164.247 6.47504H163.898V6.79879H164.247V6.47504ZM164.247 0.323752V0H163.898V0.323752H164.247ZM170.538 6.47504H170.887V6.15128H170.538V6.47504ZM170.538 22.6626H170.188V22.9864H170.538V22.6626ZM176.828 22.6626V22.9864H177.177V22.6626H176.828ZM176.828 6.47504V6.15128H176.479V6.47504H176.828ZM183.118 6.47504V6.79879H183.468V6.47504H183.118ZM183.118 0.323752H183.468V0H183.118V0.323752ZM0.698925 22.9864V0.323752H0V22.9864H0.698925ZM15.7258 22.6626H0.349462V23.3101H15.7258V22.6626ZM15.3763 16.8351V22.9864H16.0753V16.8351H15.3763ZM6.63979 17.1588H15.7258V16.5113H6.63979V17.1588ZM6.29032 14.5688V16.8351H6.98925V14.5688H6.29032ZM14.6774 14.2451H6.63979V14.8926H14.6774V14.2451ZM14.328 8.7413V14.5688H15.0269V8.7413H14.328ZM6.63979 9.06505H14.6774V8.41755H6.63979V9.06505ZM6.29032 6.47504V8.7413H6.98925V6.47504H6.29032ZM14.6774 6.15128H6.63979V6.79879H14.6774V6.15128ZM14.328 0.323752V6.47504H15.0269V0.323752H14.328ZM0.349462 0.647504H14.6774V0H0.349462V0.647504ZM30.4032 23.3101V0.647504H29.7043V23.3101H30.4032ZM44.3817 22.9864H30.0538V23.6339H44.3817V22.9864ZM44.0323 16.8351V23.3101H44.7312V16.8351H44.0323ZM36.3441 17.1588H44.3817V16.5113H36.3441V17.1588ZM35.9946 0.647504V16.8351H36.6936V0.647504H35.9946ZM30.0538 0.971255H36.3441V0.323752H30.0538V0.971255ZM197.446 0.323752V22.9864H198.145V0.323752H197.446ZM212.124 0H197.796V0.647504H212.124V0ZM212.473 6.47504V0.323752H211.774V6.47504H212.473ZM204.086 6.79879H212.124V6.15128H204.086V6.79879ZM204.436 8.7413V6.47504H203.737V8.7413H204.436ZM212.124 8.41755H204.086V9.06505H212.124V8.41755ZM212.473 14.5688V8.7413H211.774V14.5688H212.473ZM204.086 14.8926H212.124V14.2451H204.086V14.8926ZM204.436 16.8351V14.5688H203.737V16.8351H204.436ZM213.172 16.5113H204.086V17.1588H213.172V16.5113ZM213.522 22.9864V16.8351H212.823V22.9864H213.522ZM197.796 23.3101H213.172V22.6626H197.796V23.3101ZM227.5 0.647504V22.6626H228.199V0.647504H227.5ZM239.731 0.323752H227.85V0.971255H239.731V0.323752ZM250.914 10.6838C250.914 9.13887 249.985 6.5618 248.15 4.37453C246.305 2.17496 243.503 0.323752 239.731 0.323752V0.971255C243.228 0.971255 245.843 2.68131 247.598 4.77146C249.362 6.8739 250.215 9.31499 250.215 10.6838H250.914ZM239.719 22.9864C241.421 23.0427 244.216 22.5389 246.593 20.7272C248.985 18.9045 250.914 15.7855 250.914 10.6838H250.215C250.215 15.6184 248.359 18.5432 246.149 20.2274C243.924 21.9232 241.303 22.3907 239.744 22.3389L239.719 22.9864ZM227.85 22.9864H239.731V22.3389H227.85V22.9864ZM233.79 6.47504V16.8332H234.489V6.47504H233.79ZM239.624 6.15128H234.14V6.79879H239.624V6.15128ZM244.973 11.1973C244.973 10.4255 244.526 9.17771 243.66 8.12552C242.785 7.06297 241.442 6.15128 239.624 6.15128V6.79879C241.161 6.79879 242.317 7.56285 243.104 8.51856C243.899 9.48464 244.274 10.5977 244.274 11.1973H244.973ZM239.611 17.1569C240.436 17.1847 241.775 16.9374 242.913 16.0529C244.065 15.1581 244.973 13.6397 244.973 11.1973H244.274C244.274 13.4765 243.436 14.8019 242.463 15.5569C241.478 16.3229 240.316 16.5327 239.636 16.5094L239.611 17.1569ZM234.14 17.1569H239.624V16.5094H234.14V17.1569ZM58.3602 0.323752V22.9864H59.0592V0.323752H58.3602ZM73.0377 0H58.7097V0.647504H73.0377V0ZM73.3871 6.47504V0.323752H72.6882V6.47504H73.3871ZM65 6.79879H73.0377V6.15128H65V6.79879ZM65.3495 8.7413V6.47504H64.6506V8.7413H65.3495ZM73.0377 8.41755H65V9.06505H73.0377V8.41755ZM73.3871 14.5688V8.7413H72.6882V14.5688H73.3871ZM65 14.8926H73.0377V14.2451H65V14.8926ZM65.3495 16.8351V14.5688H64.6506V16.8351H65.3495ZM74.086 16.5113H65V17.1588H74.086V16.5113ZM74.4355 22.9864V16.8351H73.7366V22.9864H74.4355ZM58.7097 23.3101H74.086V22.6626H58.7097V23.3101ZM96.7843 22.5642L89.0962 0.225336L88.4308 0.422168L96.119 22.761L96.7843 22.5642ZM104.14 22.3389H96.4516V22.9864H104.14V22.3389ZM111.495 0.225336L103.807 22.5642L104.473 22.761L112.161 0.422168L111.495 0.225336ZM104.14 0.647504H111.828V0H104.14V0.647504ZM100.633 13.6818L104.477 0.40793L103.802 0.239573L99.9582 13.5134L100.633 13.6818ZM95.0727 0.428649L99.9651 13.7025L100.626 13.4927L95.7339 0.218855L95.0727 0.428649ZM88.7635 0.647504H95.4033V0H88.7635V0.647504ZM126.838 22.761L134.526 0.422168L133.861 0.225336L126.173 22.5642L126.838 22.761ZM133.145 22.3389H126.505V22.9864H133.145V22.3389ZM137.707 9.2839L132.815 22.5577L133.476 22.7675L138.368 9.4937L137.707 9.2839ZM142.219 22.5784L138.375 9.30462L137.7 9.47298L141.544 22.7468L142.219 22.5784ZM149.57 22.3389H141.882V22.9864H149.57V22.3389ZM141.549 0.422168L149.237 22.761L149.903 22.5642L142.214 0.225336L141.549 0.422168ZM134.194 0.647504H141.882V0H134.194V0.647504ZM164.597 6.47504V0.323752H163.898V6.47504H164.597ZM170.538 6.15128H164.247V6.79879H170.538V6.15128ZM170.887 22.6626V6.47504H170.188V22.6626H170.887ZM176.828 22.3389H170.538V22.9864H176.828V22.3389ZM176.479 6.47504V22.6626H177.177V6.47504H176.479ZM183.118 6.15128H176.828V6.79879H183.118V6.15128ZM182.769 0.323752V6.47504H183.468V0.323752H182.769ZM164.247 0.647504H183.118V0H164.247V0.647504Z" fill="white"/>
<path d="M29.9802 31.8888H26.6091V40.0637H29.9802C32.8513 40.0637 34.697 38.3984 34.697 35.9763C34.697 33.5424 32.8513 31.8888 29.9802 31.8888ZM28.8009 38.3402V33.589H29.8392C31.4926 33.589 32.4668 34.474 32.4668 35.9763C32.4668 37.4785 31.4926 38.3402 29.8392 38.3402H28.8009ZM45.9197 40.0637H48.1112V31.8888H45.9197V40.0637ZM66.2343 37.6298C66.2343 34.8932 61.7866 35.5337 61.7866 34.113C61.7866 33.6006 62.1839 33.3561 62.7094 33.3677C63.2991 33.3794 63.7092 33.6938 63.7477 34.2178H66.1189C66.0292 32.6574 64.709 31.7723 62.7479 31.7723C60.8637 31.7723 59.4666 32.6341 59.4666 34.1829C59.441 37.0825 63.9399 36.2674 63.9399 37.7812C63.9399 38.2587 63.5298 38.5498 62.8889 38.5498C62.2736 38.5498 61.8379 38.247 61.7738 37.6182H59.441C59.505 39.2718 61.0175 40.1452 62.953 40.1452C65.0551 40.1452 66.2343 39.004 66.2343 37.6298ZM77.0938 33.4842H79.4778V40.0637H81.6697V33.4842H84.0537V31.8888H77.0938V33.4842ZM99.9072 34.5439C99.9072 35.1844 99.5226 35.5687 98.7023 35.5687H97.3436V33.5424H98.7023C99.5226 33.5424 99.9072 33.9383 99.9072 34.5439ZM95.1518 31.8888V40.0637H97.3436V36.9777H97.8691L99.7405 40.0637H102.214L100.138 36.8263C101.522 36.4537 102.137 35.4872 102.137 34.4624C102.137 33.0417 101.035 31.8888 98.8305 31.8888H95.1518ZM113.511 40.0637H115.702V31.8888H113.511V40.0637ZM132.249 37.5716C132.249 38.1539 131.826 38.4567 131.095 38.4567H129.48V36.6517H131.07C131.8 36.6517 132.249 36.9894 132.249 37.5716ZM132.031 34.3459C132.031 34.9049 131.634 35.196 130.916 35.196H129.48V33.4842H130.916C131.634 33.4842 132.031 33.787 132.031 34.3459ZM134.466 37.8395C134.466 36.9079 133.787 36.0694 132.736 35.8714C133.608 35.6385 134.261 34.998 134.261 34.0082C134.261 32.7156 133.172 31.8888 131.339 31.8888H127.289V40.0637H131.48C133.377 40.0637 134.466 39.1903 134.466 37.8395ZM145.698 36.7681C145.698 39.0273 147.325 40.1452 149.415 40.1452C151.491 40.1452 153.234 39.0273 153.234 36.7681V31.8888H151.043V36.7798C151.043 37.7463 150.491 38.3053 149.453 38.3053C148.415 38.3053 147.889 37.7463 147.889 36.7798V31.8888H145.698V36.7681ZM164.284 33.4842H166.668V40.0637H168.86V33.4842H171.244V31.8888H164.284V33.4842ZM182.341 40.0637H184.533V31.8888H182.341V40.0637ZM201.977 31.8888V36.9544L198.311 31.8888H196.119V40.0637H198.311V35.0213L201.977 40.0637H204.169V31.8888H201.977ZM219.96 31.7956C217.268 31.7956 215.384 33.5191 215.384 35.9646C215.384 38.4101 217.281 40.1219 219.973 40.1219C222.344 40.1219 223.844 38.7129 224.305 37.3038V35.4522H219.537V36.9195H222.318C221.985 37.8395 221.229 38.3635 220.139 38.3635C218.563 38.3635 217.614 37.4785 217.614 35.9646C217.614 34.5439 218.55 33.6356 219.96 33.6356C220.78 33.6356 221.395 33.9267 221.729 34.474H224.151C223.677 32.7971 222.113 31.7956 219.96 31.7956Z" fill="white"/>
</svg>
