<svg width="8" height="15" viewBox="0 0 8 15" fill="#000" xmlns="http://www.w3.org/2000/svg">
<path d="M3.21805 0.171862C3.21787 0.172037 3.21767 0.172184 3.21749 0.172389L0.170622 3.23403C-0.0576293 3.46339 -0.0567798 3.83438 0.172614 4.06269C0.401979 4.29097 0.772965 4.29009 1.00125 4.06073L3.04687 2.00514L3.04687 14.4141C3.04687 14.7377 3.30919 15 3.6328 15C3.95642 15 4.21874 14.7377 4.21874 14.4141L4.21874 2.00517L6.26436 4.0607C6.49264 4.29006 6.86363 4.29094 7.09299 4.06266C7.32242 3.83435 7.32321 3.46333 7.09498 3.234L4.04811 0.17236C4.04794 0.172185 4.04773 0.172037 4.04756 0.171832C3.81852 -0.0576507 3.44633 -0.0569173 3.21805 0.171862Z"  />
</svg>
