<svg width="16" height="12" viewBox="0 0 16 12" fill="none" xmlns="http://www.w3.org/2000/svg">
<path d="M14.2505 12H1.7495C0.7845 12 0 11.2155 0 10.2505V1.7495C0 0.7845 0.7845 0 1.7495 0H14.2505C15.2155 0 16 0.7845 16 1.7495V10.2505C16 11.2155 15.2155 12 14.2505 12ZM1.7495 1C1.336 1 1 1.336 1 1.7495V10.2505C1 10.6635 1.336 11 1.7495 11H14.2505C14.6635 11 15 10.6635 15 10.2505V1.7495C15 1.336 14.6635 1 14.2505 1H1.7495ZM8 7.7375C7.6985 7.7375 7.3975 7.628 7.157 7.41L2.1635 2.87C1.959 2.6845 1.9445 2.368 2.13 2.1635C2.316 1.9595 2.6315 1.9445 2.8365 2.13L7.83 6.6695C7.9265 6.7585 8.073 6.758 8.17 6.67L13.1635 2.13C13.3675 1.9445 13.6845 1.9595 13.87 2.1635C14.0555 2.368 14.0405 2.6845 13.8365 2.87L8.843 7.41C8.6025 7.628 8.3015 7.7375 8 7.7375ZM2.5 10C2.372 10 2.244 9.951 2.1465 9.8535C1.951 9.658 1.951 9.342 2.1465 9.1465L5.6465 5.6465C5.842 5.451 6.158 5.451 6.3535 5.6465C6.549 5.842 6.549 6.158 6.3535 6.3535L2.8535 9.8535C2.756 9.951 2.628 10 2.5 10ZM13.5 10C13.372 10 13.244 9.951 13.1465 9.8535L9.6465 6.3535C9.451 6.158 9.451 5.842 9.6465 5.6465C9.842 5.451 10.158 5.451 10.3535 5.6465L13.8535 9.1465C14.049 9.342 14.049 9.658 13.8535 9.8535C13.756 9.951 13.628 10 13.5 10Z" fill="#4D4D4D"/>
</svg>
