<svg width="21" height="21" viewBox="0 0 21 21" fill="none" xmlns="http://www.w3.org/2000/svg">
<path d="M20.8167 19.929L15.7134 14.8257C17.0823 13.2519 17.9111 11.1984 17.9111 8.9541C17.9111 4.01375 13.8927 0 8.95703 0C4.01668 0 0.00292969 4.0184 0.00292969 8.9541C0.00292969 13.8898 4.02133 17.9082 8.95703 17.9082C11.2014 17.9082 13.2548 17.0794 14.8287 15.7104L19.932 20.8137C20.053 20.9348 20.216 21 20.3743 21C20.5326 21 20.6956 20.9395 20.8167 20.8137C21.0588 20.5716 21.0588 20.1712 20.8167 19.929ZM1.25548 8.9541C1.25548 4.70754 4.71047 1.25721 8.95237 1.25721C13.1989 1.25721 16.6493 4.7122 16.6493 8.9541C16.6493 13.196 13.1989 16.6557 8.95237 16.6557C4.71047 16.6557 1.25548 13.2007 1.25548 8.9541Z" fill="#121F2D"/>
</svg>
