<svg width="112" height="123" viewBox="0 0 112 123" fill="none" xmlns="http://www.w3.org/2000/svg">
<circle cx="56" cy="56" r="56" fill="#ABB985"/>
<path d="M55.5099 29L54.8033 30.0688C54.3582 30.7414 53.9369 31.45 53.5421 32.1899C53.1473 32.9299 52.776 33.7014 52.4327 34.5013C51.7462 36.1009 51.1649 37.814 50.6927 39.6091C50.2206 41.4042 49.8576 43.283 49.6131 45.2153C49.3685 47.1475 49.242 49.1317 49.24 51.1427V51.146C49.2411 53.1565 49.3695 55.1413 49.6131 57.0735C49.6841 57.6369 49.7867 58.1853 49.8772 58.7389C48.8065 57.355 47.6322 56.0099 46.3675 54.7228V54.7195C45.1006 53.434 43.7744 52.2409 42.412 51.1526C41.0497 50.0642 39.6512 49.0813 38.2387 48.2183C36.8261 47.3554 35.3984 46.6137 33.9795 46.0054C33.27 45.7012 32.5629 45.4303 31.8598 45.1956C31.1566 44.9609 30.4581 44.76 29.7665 44.5989L28.4524 44.294L28.7495 45.6021C28.9083 46.3035 29.1029 47.01 29.3339 47.7233C29.565 48.4366 29.8336 49.1572 30.133 49.8772C30.7316 51.3173 31.4599 52.764 32.3088 54.1982C33.1577 55.6325 34.1273 57.0537 35.1978 58.4373C36.2683 59.8208 37.4398 61.1666 38.7042 62.4534H38.7075C39.9743 63.7392 41.3006 64.935 42.663 66.0236C43.2506 66.4932 43.8466 66.9323 44.4459 67.3613C44.0408 67.3425 43.6365 67.3189 43.2275 67.3186H43.2242C42.6167 67.3193 42.0129 67.3398 41.4149 67.3809C40.8169 67.422 40.226 67.4842 39.6419 67.5645C39.0578 67.6448 38.481 67.7445 37.9151 67.8629C37.3492 67.9812 36.7945 68.1174 36.251 68.2727C35.7075 68.428 35.1764 68.5994 34.6596 68.7907C34.1428 68.9819 33.6397 69.1937 33.154 69.4201C32.6683 69.6466 32.1977 69.8903 31.7475 70.1512C31.2973 70.4121 30.8667 70.6891 30.4565 70.984L29.5089 71.6659L30.4565 72.3445C30.867 72.6389 31.3003 72.9168 31.7508 73.1772C32.2013 73.4377 32.6715 73.6791 33.1573 73.9051C33.6432 74.1311 34.1428 74.3404 34.6596 74.5312C35.1764 74.7221 35.7076 74.8944 36.251 75.0492C36.7945 75.2041 37.3526 75.3411 37.9184 75.4591C38.4842 75.577 39.058 75.6775 39.6419 75.7574C40.2258 75.8373 40.8205 75.8969 41.4182 75.9377C42.0159 75.9785 42.617 75.9996 43.2242 76H43.2275C43.8351 75.9994 44.4389 75.9787 45.0369 75.9377C45.6349 75.8967 46.2257 75.8343 46.8099 75.7541C47.3941 75.6739 47.9707 75.5773 48.5367 75.4591C49.1027 75.3408 49.6572 75.2012 50.2008 75.046C50.7443 74.8907 51.2786 74.7192 51.7955 74.528C52.3123 74.3367 52.8119 74.1282 53.2978 73.9018C53.7664 73.6834 54.219 73.4474 54.6548 73.1969V86.0714H33.5238V86.9107V96.1429H37.0038L40.3848 123H70.6152L73.9962 96.1429H77.4762V86.0714H56.3452V73.1936C56.782 73.4449 57.2323 73.6828 57.7022 73.9018C58.1881 74.1282 58.691 74.3367 59.2078 74.528C59.7247 74.7192 60.2557 74.8907 60.7992 75.046C61.3428 75.2012 61.9006 75.3408 62.4666 75.4591C63.0326 75.5773 63.6059 75.6739 64.1901 75.7541C64.7743 75.8343 65.3684 75.8967 65.9664 75.9377C66.5644 75.9787 67.1682 75.9994 67.7758 76C68.383 75.9996 68.9874 75.9785 69.5851 75.9377C70.1828 75.8969 70.7742 75.8373 71.3581 75.7574C71.942 75.6775 72.5191 75.577 73.0849 75.4591C73.6507 75.3411 74.2055 75.2041 74.749 75.0492C75.2924 74.8944 75.8236 74.7221 76.3404 74.5312C76.8572 74.3404 77.3601 74.1311 77.846 73.9051C78.3318 73.6791 78.802 73.4377 79.2525 73.1772C79.703 72.9168 80.133 72.6389 80.5435 72.3445L81.4911 71.6659L80.5435 70.984C80.1333 70.6891 79.7027 70.4121 79.2525 70.1512C78.8023 69.8903 78.335 69.6466 77.8493 69.4201C77.3636 69.1937 76.8605 68.9819 76.3437 68.7907C75.8269 68.5994 75.2958 68.428 74.7523 68.2727C74.2088 68.1174 73.6541 67.9812 73.0882 67.8629C72.5223 67.7445 71.9455 67.6448 71.3614 67.5645C70.7773 67.4842 70.1831 67.422 69.5851 67.3809C68.9871 67.3398 68.3833 67.3193 67.7758 67.3186C67.3668 67.3189 66.9625 67.3425 66.5574 67.3613C67.1567 66.9323 67.7528 66.4932 68.3404 66.0236C69.7027 64.935 71.029 63.7392 72.2958 62.4534C73.5602 61.1666 74.735 59.8208 75.8055 58.4373C76.876 57.0537 77.8423 55.6325 78.6912 54.1982C79.5401 52.764 80.2717 51.3173 80.8703 49.8772C81.1697 49.1572 81.435 48.4366 81.6661 47.7233C81.8971 47.01 82.095 46.3035 82.2538 45.6021L82.5476 44.294L81.2368 44.5989C80.5452 44.76 79.8434 44.9609 79.1402 45.1956C78.4371 45.4303 77.73 45.7012 77.0205 46.0054C75.6016 46.6137 74.1772 47.3554 72.7646 48.2183C71.3521 49.0813 69.9536 50.0642 68.5913 51.1526C67.2289 52.2409 65.9027 53.434 64.6358 54.7195L64.6325 54.7228C63.3679 56.0099 62.1935 57.355 61.1228 58.7389C61.2134 58.1863 61.3158 57.6392 61.387 57.0767C61.6313 55.1442 61.7583 53.1572 61.76 51.146V51.1427C61.7589 49.1327 61.6337 47.1503 61.3903 45.2185C61.1468 43.2868 60.7848 41.4074 60.3139 39.6124C59.843 37.8173 59.2624 36.1047 58.5772 34.5045C58.2346 33.7045 57.8685 32.9336 57.4744 32.1932C57.0803 31.4529 56.6609 30.742 56.2165 30.0688L55.5099 29ZM55.5066 32.1801C55.6623 32.4484 55.8301 32.6976 55.9788 32.9768C56.3495 33.6732 56.6971 34.4014 57.0221 35.1602C57.672 36.678 58.2281 38.3143 58.6795 40.0353C59.131 41.7563 59.4783 43.5631 59.713 45.4251C59.9475 47.286 60.0683 49.203 60.0696 51.1427C60.0679 53.0847 59.9452 55.0042 59.7097 56.8669C59.4742 58.7296 59.1287 60.5354 58.6762 62.2567C58.2237 63.978 57.6665 65.6142 57.0155 67.1318C56.5712 68.1674 56.0253 69.061 55.4967 69.9775C54.9688 69.0607 54.4248 68.1675 53.9812 67.1318C53.3311 65.6138 52.7754 63.978 52.3238 62.2567C51.8721 60.5354 51.5251 58.726 51.2903 56.8636C51.0556 55.0013 50.9315 53.084 50.9304 51.1427C50.9325 49.202 51.0547 47.2865 51.2903 45.4251C51.526 43.5626 51.8777 41.753 52.3304 40.032C52.783 38.311 53.3367 36.6774 53.9878 35.1602C54.3134 34.4016 54.6631 33.6728 55.0345 32.9768C55.1833 32.6977 55.3507 32.4482 55.5066 32.1801ZM30.7867 46.6348C30.9661 46.6899 31.1409 46.7253 31.3216 46.7856C31.9776 47.0046 32.6405 47.2596 33.3092 47.5462C34.6466 48.1196 36.005 48.8237 37.3538 49.6477C38.7026 50.4717 40.0429 51.4147 41.3522 52.4607C42.6615 53.5066 43.9387 54.6549 45.159 55.8932C46.3773 57.133 47.507 58.4309 48.5367 59.7618C49.3605 60.8265 50.0988 61.9161 50.7852 63.0107C51.2398 64.683 51.7839 66.288 52.4261 67.7875C52.6596 68.3325 52.9215 68.8464 53.1789 69.3644C52.7289 69.1586 52.2683 68.9632 51.7922 68.7874C51.2753 68.5965 50.7443 68.4243 50.2008 68.2694C49.6572 68.1145 49.1026 67.9776 48.5367 67.8596C48.4273 67.8368 48.3134 67.822 48.2032 67.8006C48.0426 67.7059 47.8816 67.6265 47.7212 67.5285C46.3723 66.7042 45.0321 65.7618 43.7228 64.7155C42.4135 63.6693 41.1363 62.5183 39.9159 61.2797C38.6986 60.0407 37.5673 58.7444 36.5383 57.4144C35.5088 56.0838 34.58 54.7207 33.7681 53.3491C32.9563 51.9775 32.2606 50.5959 31.6947 49.2347C31.4117 48.554 31.1616 47.88 30.9452 47.2118C30.8821 47.0172 30.8439 46.828 30.7867 46.6348ZM80.2166 46.6348C80.1594 46.8281 80.1212 47.0172 80.0581 47.2118C79.8417 47.88 79.5916 48.554 79.3086 49.2347C78.7427 50.5959 78.047 51.9775 77.2352 53.3491C76.4233 54.7207 75.4945 56.0838 74.465 57.4144C73.436 58.7444 72.3047 60.0407 71.0874 61.2797C69.8671 62.5183 68.5899 63.6693 67.2805 64.7155C65.9712 65.7618 64.631 66.7042 63.2821 67.5285C63.1219 67.6264 62.9573 67.7095 62.7968 67.8039C62.6879 67.8251 62.5747 67.837 62.4666 67.8596C61.9007 67.9776 61.3461 68.1145 60.8025 68.2694C60.259 68.4243 59.728 68.5965 59.2111 68.7874C58.7317 68.9645 58.2674 69.1603 57.8145 69.3677C58.0728 68.8491 58.3364 68.3367 58.5706 67.7907C59.2128 66.2937 59.7534 64.6904 60.2082 63.0206V63.0173C60.8958 61.9201 61.6376 60.829 62.4633 59.7618C63.493 58.4309 64.626 57.133 65.8443 55.8932C67.0646 54.6549 68.3418 53.5066 69.6511 52.4607C70.9605 51.4147 72.3007 50.4717 73.6495 49.6477C74.9983 48.8237 76.3534 48.1196 77.6908 47.5462C78.3595 47.2596 79.0257 47.0046 79.6817 46.7856C79.8627 46.7252 80.0369 46.6899 80.2166 46.6348ZM43.2242 68.9972C43.7933 68.9976 44.3584 69.0148 44.918 69.0529C45.4776 69.0911 46.0333 69.1487 46.5788 69.2234C47.1243 69.2981 47.66 69.3923 48.1867 69.5021C48.7135 69.6119 49.2319 69.7389 49.7352 69.8824C50.2385 70.0259 50.7293 70.1856 51.2045 70.361C51.6796 70.5365 52.1389 70.7257 52.5813 70.9315C53.0236 71.1373 53.4474 71.3595 53.8524 71.5938C53.8862 71.6133 53.9147 71.6363 53.9482 71.656C53.9147 71.6758 53.8862 71.6988 53.8524 71.7183C53.4476 71.9528 53.0235 72.1745 52.5813 72.3806C52.1391 72.5867 51.6796 72.7785 51.2045 72.9543C50.7294 73.1301 50.2385 73.2892 49.7352 73.433C49.2319 73.5767 48.7168 73.7065 48.19 73.8165C47.6632 73.9266 47.1244 74.017 46.5788 74.0919C46.0332 74.1669 45.4811 74.224 44.9213 74.2624C44.3627 74.3007 43.7956 74.3208 43.2275 74.3214C42.6587 74.3211 42.0933 74.3006 41.5338 74.2624C40.9743 74.2243 40.4184 74.1699 39.873 74.0952C39.3276 74.0205 38.7917 73.9263 38.2651 73.8165C37.7384 73.7068 37.2231 73.5797 36.7199 73.4362C36.2167 73.2928 35.7257 73.133 35.2506 72.9576C34.7755 72.7822 34.3161 72.5929 33.8738 72.3871C33.4315 72.1814 33.0076 71.959 32.6026 71.7249C32.5681 71.7049 32.5378 71.6828 32.5036 71.6626C32.537 71.6429 32.5656 71.6198 32.5993 71.6003C33.0041 71.3658 33.4317 71.1442 33.8738 70.9381C34.3159 70.7319 34.7756 70.5401 35.2506 70.3643C35.7256 70.1885 36.2134 70.0294 36.7166 69.8857C37.2198 69.7419 37.7383 69.6155 38.2651 69.5054C38.7918 69.3952 39.3274 69.3017 39.873 69.2267C40.4186 69.1517 40.9741 69.0947 41.5338 69.0562C42.0924 69.0178 42.6562 68.9979 43.2242 68.9972ZM67.7758 68.9972C68.3449 68.9978 68.9098 69.0177 69.4695 69.0562C70.0292 69.0947 70.5847 69.1517 71.1303 69.2267C71.6759 69.3017 72.2115 69.3952 72.7382 69.5054C73.265 69.6155 73.7802 69.7419 74.2834 69.8857C74.7866 70.0294 75.2777 70.1885 75.7527 70.3643C76.2277 70.5401 76.6874 70.7319 77.1295 70.9381C77.5716 71.1442 77.9959 71.3658 78.4007 71.6003C78.4344 71.6198 78.463 71.6429 78.4964 71.6626C78.4629 71.6823 78.4344 71.7054 78.4007 71.7249C77.9957 71.959 77.5718 72.1814 77.1295 72.3871C76.6872 72.5929 76.2278 72.7822 75.7527 72.9576C75.2776 73.133 74.7866 73.2928 74.2834 73.4362C73.7802 73.5797 73.2649 73.7068 72.7382 73.8165C72.2116 73.9263 71.6724 74.0205 71.127 74.0952C70.5816 74.1699 70.029 74.2243 69.4695 74.2624C68.9101 74.3006 68.3446 74.3211 67.7758 74.3214C67.2066 74.3209 66.6417 74.3008 66.082 74.2624C65.5222 74.224 64.9702 74.1669 64.4245 74.0919C63.8789 74.017 63.3401 73.9266 62.8133 73.8165C62.2865 73.7065 61.7714 73.5767 61.2681 73.433C60.7648 73.2892 60.2739 73.1301 59.7988 72.9543C59.3237 72.7785 58.8642 72.5867 58.422 72.3806C57.9798 72.1745 57.5557 71.9528 57.1509 71.7183C57.1172 71.6988 57.0885 71.6757 57.0551 71.656C57.0885 71.6364 57.1172 71.6132 57.1509 71.5938C57.5559 71.3595 57.9797 71.1373 58.422 70.9315C58.8644 70.7257 59.3237 70.5365 59.7988 70.361C60.274 70.1856 60.7648 70.0259 61.2681 69.8824C61.7714 69.7389 62.2865 69.6119 62.8133 69.5021C63.34 69.3923 63.879 69.2981 64.4245 69.2234C64.9701 69.1487 65.5224 69.0911 66.082 69.0529C66.6416 69.0148 67.2068 68.9976 67.7758 68.9972ZM35.2143 87.75H75.7857V94.4643H74.2075H36.7925H35.2143V87.75ZM38.7075 96.1429H72.2925L69.1229 121.321H41.8771L38.7075 96.1429Z" fill="black"/>
<path d="M41.1309 34.0359V36.5537H42.8214V34.0359H41.1309ZM42.8214 36.5537V38.2323H45.3571V36.5537H42.8214ZM42.8214 38.2323H41.1309V40.7502H42.8214V38.2323ZM41.1309 38.2323V36.5537H38.5952V38.2323H41.1309Z" fill="black"/>
<path d="M68.1785 34.0359V36.5537H69.869V34.0359H68.1785ZM69.869 36.5537V38.2323H72.4047V36.5537H69.869ZM69.869 38.2323H68.1785V40.7502H69.869V38.2323ZM68.1785 38.2323V36.5537H65.6428V38.2323H68.1785Z" fill="black"/>
<path d="M22.5357 59.2142V61.7321H24.2262V59.2142H22.5357ZM24.2262 61.7321V63.4107H26.7619V61.7321H24.2262ZM24.2262 63.4107H22.5357V65.9285H24.2262V63.4107ZM22.5357 63.4107V61.7321H20V63.4107H22.5357Z" fill="black"/>
<path d="M86.7738 59.2141V61.732H88.4642V59.2141H86.7738ZM88.4642 61.732V63.4105H90.9999V61.732H88.4642ZM88.4642 63.4105H86.7738V65.9284H88.4642V63.4105ZM86.7738 63.4105V61.732H84.238V63.4105H86.7738Z" fill="black"/>
<path d="M55.4999 102.857C52.709 102.857 50.4285 105.121 50.4285 107.893C50.4285 110.664 52.709 112.928 55.4999 112.928C58.2908 112.928 60.5713 110.664 60.5713 107.893C60.5713 105.121 58.2908 102.857 55.4999 102.857ZM55.4999 104.536C57.3772 104.536 58.8808 106.029 58.8808 107.893C58.8808 109.757 57.3772 111.25 55.4999 111.25C53.6226 111.25 52.1189 109.757 52.1189 107.893C52.1189 106.029 53.6226 104.536 55.4999 104.536Z" fill="black"/>
</svg>
