<svg width="21" height="21" viewBox="0 0 21 21" fill="none" xmlns="http://www.w3.org/2000/svg">
<path fill-rule="evenodd" clip-rule="evenodd" d="M3.70317 18.5036C3.26146 18.1283 2.84705 17.7125 2.47144 17.2677C0.877611 15.3786 0 12.9752 0 10.5C0 7.69531 1.09216 5.05854 3.07535 3.07535C5.05854 1.09216 7.69531 0 10.5 0C13.3047 0 15.9415 1.09216 17.9246 3.07535C19.9078 5.05854 21 7.69531 21 10.5C21 12.9752 20.1224 15.3786 18.5288 17.2675C18.1522 17.7133 17.7369 18.1299 17.2941 18.5059C17.2915 18.5081 17.289 18.5103 17.2864 18.5124C15.3947 20.1166 12.9847 21 10.5 21C8.01658 21 5.6078 20.1175 3.71641 18.5148C3.71195 18.5111 3.70754 18.5074 3.70317 18.5036ZM3.28446 16.1883C2.0107 14.5735 1.3125 12.5654 1.3125 10.5C1.3125 5.434 5.434 1.3125 10.5 1.3125C15.566 1.3125 19.6875 5.434 19.6875 10.5C19.6875 12.5655 18.9892 14.5737 17.7155 16.1883C17.6615 14.3592 16.9286 12.6432 15.6379 11.3354C14.8754 10.5629 13.9681 9.98302 12.9764 9.62168C13.8672 8.89918 14.4375 7.79619 14.4375 6.5625C14.4375 4.39134 12.6712 2.625 10.5 2.625C8.32884 2.625 6.5625 4.39134 6.5625 6.5625C6.5625 7.79622 7.13282 8.89922 8.02367 9.62172C7.03198 9.98305 6.12456 10.5629 5.36205 11.3355C4.07136 12.6432 3.33845 14.3592 3.28446 16.1883ZM10.5 10.5L10.4136 10.5004C7.20423 10.5465 4.59375 13.1953 4.59375 16.4063C4.59375 16.824 4.6375 17.2398 4.72393 17.6451C6.35355 18.9637 8.39604 19.6875 10.5 19.6875C12.604 19.6875 14.6465 18.9637 16.2761 17.6451C16.3625 17.2398 16.4062 16.824 16.4062 16.4063C16.4062 13.1953 13.7958 10.5465 10.5864 10.5004L10.5 10.5ZM10.5 9.1875C11.9474 9.1875 13.125 8.00994 13.125 6.5625C13.125 5.11506 11.9474 3.9375 10.5 3.9375C9.05256 3.9375 7.875 5.11506 7.875 6.5625C7.875 8.00994 9.05256 9.1875 10.5 9.1875Z" fill="#121F2D"/>
</svg>
